<svg id="Capa_1" data-name="Capa 1" xmlns="http://www.w3.org/2000/svg" viewBox="0 0 227.06 202.6"><path d="M177.15,104.35c5.45,3,10.19,5.86,14.27,9.66,8.08,7.54,13.1,17.09,17.68,26.9,5.82,12.48,11.52,25,17.39,37.47,1,2.17.76,3.17-1.52,4.16-5.57,2.44-11.08,5-16.48,7.83-2.49,1.28-3.33.44-4.33-1.77-6.65-14.69-13.42-29.32-20.14-44-4.05-8.82-9.21-16.87-17-22.79-8.9-6.76-19.32-9.34-30.34-9.72-8.25-.29-8.25-.24-8.25-8.4,0-2.86.17-5.74,0-8.58s.9-3.26,3.41-3.26c10.32,0,20.67.51,31-.53a44.64,44.64,0,0,0,22.13-8c14.3-10.32,16-37.21-6.63-46.81-8.09-3.43-16.61-4.15-25.21-4.19-7.21,0-14.43.31-21.64.69-2.26.11-3.12-.4-3-2.78.16-4.85.08-9.71,0-14.56,0-1.72.26-2.84,2.4-2.83,15.28.08,30.64-1.47,45.81,1.5,11.75,2.31,22.61,6.65,31.19,15.46C224.05,46.51,224.88,81.42,197,96.44A90.63,90.63,0,0,1,177.15,104.35Z" fill="#269adb"/><path d="M102,34.4a72.08,72.08,0,0,0-30.85-2.31c-15.92,2.31-27.75,10.76-36,24.29-9.84,16.14-11.8,33.95-10.59,52.36a78.68,78.68,0,0,0,10.15,34.65c11.33,19.71,28.65,28,51,26.55,4.82-.31,9.66-.7,14.28-2.33,1.4-.49,2.05-.16,2,1.45,0,5.72-.08,11.45,0,17.17,0,1.63-.75,2.18-2.1,2.42-27.95,5-54,2.5-75.4-18.78C12.92,158.31,6.23,144.05,2.93,128.22c-4.78-23-4-45.63,4.48-67.72C20.21,27.19,51,8,86.54,11c4.21.36,8.4.85,12.6,1.31,1.91.21,3,.87,2.91,3.26C101.83,21.76,102,28,102,34.4Z" fill="#002138"/><path d="M111.51,101.33c0-32.46,0-64.93-.07-97.39,0-3.15.89-3.91,4-3.94S119,1.09,119,3.87q-.09,97.39,0,194.8c0,3.15-.9,3.9-4,3.93s-3.64-1.09-3.63-3.87Q111.58,150,111.51,101.33Z" fill="#c7c7c7"/></svg>