<svg width="360" height="733" viewBox="0 0 360 733" fill="none" xmlns="http://www.w3.org/2000/svg">
<g clip-path="url(#clip0_112_2)">
<ellipse cx="158.871" cy="189.555" rx="216.569" ry="189.555" fill="url(#paint0_radial_112_2)"/>
<path fill-rule="evenodd" clip-rule="evenodd" d="M123.611 58.7306C127.461 58.7306 131.56 64.5089 132.6 71.7318C133.639 78.9547 131.329 84.7138 127.403 84.7138C123.477 84.7138 119.454 78.9355 118.415 71.7318C117.375 64.5282 119.704 58.7306 123.611 58.7306ZM197.096 58.7306C193.247 58.7306 189.147 64.5089 188.108 71.7318C187.069 78.9547 189.398 84.7138 193.324 84.7138C197.25 84.7138 201.254 78.9355 202.293 71.7318C203.332 64.5282 201.023 58.7306 197.096 58.7306Z" fill="#F2A273"/>
<path fill-rule="evenodd" clip-rule="evenodd" d="M50.2613 184.775L48.3366 189.841C44.2431 200.252 41.3439 211.095 39.6947 222.161C35.7332 248.755 28.7528 274.81 18.8888 299.821L80.2866 296.874C85.047 313.079 90.295 329.13 96.0306 345.027H224.639C230.374 329.143 235.622 313.092 240.383 296.874L301.973 299.821C292.124 274.807 285.15 248.752 281.186 222.161C279.531 211.094 276.625 200.251 272.525 189.841L270.6 184.775C268.418 178.933 264.125 174.122 258.571 171.292L189.263 135.081L160.392 135.332L131.522 135.081L62.3677 171.446C56.8198 174.233 52.505 178.983 50.2613 184.775Z" fill="white"/>
<path fill-rule="evenodd" clip-rule="evenodd" d="M297.065 323.628L300.914 311.705C302.656 306.379 302.812 300.66 301.363 295.246C299.914 289.833 296.923 284.957 292.754 281.215C286.883 275.97 279.799 272.271 272.143 270.449C264.486 268.627 256.497 268.741 248.896 270.78C241.294 272.819 234.319 276.719 228.599 282.128C222.879 287.538 218.595 294.287 216.132 301.767L297.065 323.628Z" fill="#FBF8F8"/>
<path fill-rule="evenodd" clip-rule="evenodd" d="M274.45 287.07C264.583 283.411 254.086 281.758 243.574 282.208C233.061 282.658 222.744 285.201 213.225 289.69L208.798 334.838C227.064 334.838 243.443 339.268 261.785 339.268C268.348 339.268 276.721 334.838 283.284 334.838C296.757 335.127 301.511 326.69 293.524 317.349L293.273 312.649C293.036 306.995 291.118 301.54 287.765 296.983C284.411 292.426 279.775 288.975 274.45 287.07Z" fill="#F5B996"/>
<path d="M230.317 334.838H90.4104V423.438H230.317V334.838Z" fill="#222222"/>
<path fill-rule="evenodd" clip-rule="evenodd" d="M335.227 423.419L337.884 436.228C340.059 447.495 338.603 459.163 333.726 469.549L244.209 620.017H233.931L238.858 648.484C240.821 659.823 242.457 671.251 243.766 682.769C243.952 685.395 243.213 688.003 241.676 690.139C240.139 692.275 237.902 693.805 235.355 694.461C234.193 694.831 232.965 694.949 231.754 694.807C230.542 694.665 229.375 694.266 228.33 693.637C227.285 693.009 226.385 692.164 225.692 691.16C224.998 690.156 224.526 689.016 224.307 687.816L185.929 631.246L159.214 648.484L124.223 665.145L114.118 513.754L128.977 423.419H335.227Z" fill="white" fill-opacity="0.1"/>
<path fill-rule="evenodd" clip-rule="evenodd" d="M140.318 596.191C183.142 695.944 159.468 733.772 112.91 667.9C103.171 654.109 106.963 618.803 94.0096 597.443L140.318 596.191Z" fill="black"/>
<path fill-rule="evenodd" clip-rule="evenodd" d="M37.4621 416.389L92.2582 612.158C96.4155 627.047 143.34 618.919 142.743 603.452L134.024 379.177C132.946 351.576 116.394 337.842 96.9159 335.127C86.9347 333.704 76.7794 336.008 68.3874 341.6C59.9954 347.191 53.9541 355.679 51.4161 365.444C49.96 370.957 47.4644 376.141 44.0638 380.717C40.2311 385.721 37.6352 391.562 36.4879 397.761C35.3405 403.96 35.6743 410.343 37.4621 416.389Z" fill="#8F8F8F"/>
<path fill-rule="evenodd" clip-rule="evenodd" d="M178.08 596.191C135.256 695.944 158.93 733.772 205.488 667.9C215.227 654.109 211.435 618.803 224.408 597.443L178.08 596.191Z" fill="black"/>
<path fill-rule="evenodd" clip-rule="evenodd" d="M280.955 416.389L226.14 612.158C221.983 627.047 175.078 618.919 175.674 603.452L184.393 379.177C185.452 351.576 202.004 337.842 221.501 335.127C231.48 333.704 241.633 336.009 250.022 341.601C258.411 347.193 264.448 355.681 266.982 365.443C268.438 370.957 270.934 376.141 274.334 380.717C278.166 385.722 280.763 391.561 281.913 397.76C283.064 403.958 282.736 410.341 280.955 416.389Z" fill="#8F8F8F"/>
<path fill-rule="evenodd" clip-rule="evenodd" d="M67.0253 184.428C82.2304 200.511 99.7452 219.56 90.9108 247.99C98.0322 255.79 123.38 258.602 131.56 252.458C122.226 249.473 107.021 246.969 104.788 235.855C97.4356 205.866 88.0045 196.505 67.0253 184.39V184.428ZM253.721 184.428C238.535 200.511 221.001 219.56 229.835 247.99C222.714 255.79 197.385 258.602 189.186 252.458C198.521 249.473 213.745 246.969 215.958 235.855C223.272 205.904 232.703 196.543 253.682 184.428H253.721Z" fill="#FBF8F8"/>
<path fill-rule="evenodd" clip-rule="evenodd" d="M23.6427 323.628L19.7933 311.705C18.0519 306.379 17.8961 300.66 19.3451 295.246C20.794 289.833 23.7852 284.957 27.954 281.215C33.8234 275.97 40.905 272.27 48.5603 270.448C56.2156 268.626 64.2037 268.739 71.8042 270.779C79.4046 272.818 86.3782 276.718 92.0962 282.128C97.8141 287.538 102.096 294.287 104.557 301.767L23.6427 323.628Z" fill="#FBF8F8"/>
<path fill-rule="evenodd" clip-rule="evenodd" d="M46.2771 287.07C56.1402 283.411 66.6339 281.757 77.1436 282.207C87.6533 282.657 97.9676 285.201 107.482 289.69L111.909 334.838C93.6439 334.838 77.2647 339.268 58.9224 339.268C52.3784 339.268 44.006 334.838 37.4427 334.838C23.9699 335.127 19.1967 326.69 27.2034 317.349L27.4536 312.649C27.6908 306.995 29.6089 301.54 32.9623 296.983C36.3158 292.426 40.9518 288.975 46.2771 287.07Z" fill="#F5B996"/>
<path fill-rule="evenodd" clip-rule="evenodd" d="M77.7845 244.234H242.885C248.909 244.234 252.778 248.221 251.488 252.94C247.158 268.888 243.212 283.391 239.632 296.624C236.341 308.739 233.281 319.91 230.49 330.215C229.739 332.95 225.505 335.127 221.078 335.127H99.5335C95.1067 335.127 90.9109 332.95 90.1603 330.215C87.3694 319.91 84.3862 308.739 81.0372 296.624L69.1618 252.94C67.93 248.221 71.7602 244.234 77.7845 244.234Z" fill="#86736C"/>
<path fill-rule="evenodd" clip-rule="evenodd" d="M160.354 287.455C173.557 287.455 183.912 291.616 183.45 296.604C182.988 301.593 172.691 305.233 160.354 305.233C148.017 305.233 137.527 301.381 137.142 296.604C136.757 291.828 147.15 287.455 160.354 287.455Z" fill="#A2918A"/>
<path fill-rule="evenodd" clip-rule="evenodd" d="M128.154 126.202H192.554L191.034 146.965L160.354 145.348L126.806 146.965L128.154 126.202Z" fill="#FBF8F8"/>
<path fill-rule="evenodd" clip-rule="evenodd" d="M128.154 126.202L160.354 145.348L142.435 167.71L113.276 144.558L128.154 126.202Z" fill="#FBF8F8"/>
<path fill-rule="evenodd" clip-rule="evenodd" d="M192.554 126.202L160.354 145.348L178.273 167.71L207.451 144.558L192.554 126.202Z" fill="#FBF8F8"/>
<path fill-rule="evenodd" clip-rule="evenodd" d="M160.354 145.348L136.334 132.057V103.455H154.926H165.801H184.374V132.057L160.354 145.348Z" fill="#F5B996"/>
<path fill-rule="evenodd" clip-rule="evenodd" d="M136.892 103.455H184.374V120.79L174.597 129.573C173.057 130.976 171.211 131.999 169.206 132.561C167.201 133.122 165.092 133.207 163.048 132.809L158.237 131.961C156.2 131.623 154.271 130.815 152.601 129.602C150.93 128.388 149.565 126.802 148.613 124.969L136.892 103.455Z" fill="#F2A273"/>
<path fill-rule="evenodd" clip-rule="evenodd" d="M121.918 34.7699L123.958 79.7251C124.195 86.7625 126.73 93.5281 131.175 98.9862L147.189 119.152C148.452 120.794 150.08 122.117 151.945 123.017C153.81 123.917 155.859 124.368 157.929 124.334H162.798C164.868 124.366 166.916 123.914 168.781 123.015C170.645 122.115 172.274 120.793 173.538 119.152L189.532 98.9862C193.991 93.5342 196.534 86.7661 196.769 79.7251L198.809 34.7699H121.918Z" fill="#F5B996"/>
<path fill-rule="evenodd" clip-rule="evenodd" d="M196.961 75.3722L202.736 32.4586C202.868 31.3817 202.773 30.289 202.454 29.2518C202.136 28.2147 201.602 27.2565 200.888 26.4401C200.174 25.6236 199.296 24.9674 198.31 24.5142C197.325 24.061 196.256 23.8212 195.172 23.8103H190.822L187.434 18.7832C185.784 16.2514 183.404 14.2808 180.61 13.1321C177.816 11.9834 174.739 11.7106 171.786 12.35L131.58 20.4782C127.4 21.325 123.701 23.7355 121.237 27.2181C118.773 30.7007 117.729 34.9929 118.318 39.2192L123.939 79.6674L127.422 51.6233L129.713 53.3953C131.923 55.1365 134.516 56.3273 137.276 56.8698C140.037 57.4123 142.887 57.2909 145.591 56.5156L191.226 44.1693L196.961 75.3722Z" fill="#3C322D"/>
<path fill-rule="evenodd" clip-rule="evenodd" d="M165.628 68.4382L165.82 67.0514L176.906 66.2039C179.152 66.0096 181.411 66.3393 183.508 67.167L188.724 69.0931C188.964 69.1801 189.166 69.35 189.293 69.5723C189.42 69.7946 189.464 70.0548 189.417 70.3065V70.5569C189.393 70.7036 189.338 70.8433 189.255 70.9664C189.172 71.0895 189.063 71.1929 188.936 71.2695C188.817 71.3549 188.683 71.4144 188.54 71.4443C188.398 71.4741 188.25 71.4737 188.108 71.4429L182.68 70.3836C181.145 70.0564 179.558 70.0564 178.023 70.3836L169.573 72.0593C169.059 72.1611 168.528 72.1372 168.026 71.9896C167.523 71.8421 167.064 71.5752 166.686 71.2118C166.3 70.8686 166.002 70.4373 165.818 69.9545C165.634 69.4717 165.568 68.9516 165.628 68.4382Z" fill="#3C322D"/>
<path fill-rule="evenodd" clip-rule="evenodd" d="M187.261 78.8391C181.352 83.3847 175.597 84.29 169.939 81.8053C169.71 81.7027 169.524 81.5248 169.41 81.3014C169.297 81.078 169.263 80.8223 169.315 80.5771C169.366 80.3318 169.5 80.1116 169.695 79.9531C169.889 79.7946 170.131 79.7074 170.382 79.7059C175.769 79.6289 181.11 78.6926 186.203 76.9323C186.455 76.8205 186.74 76.8081 187.001 76.8975C187.263 76.9869 187.481 77.1715 187.612 77.4146C187.743 77.6577 187.778 77.9413 187.709 78.209C187.641 78.4766 187.474 78.7084 187.242 78.8584L187.261 78.8391Z" fill="#3C322D"/>
<path fill-rule="evenodd" clip-rule="evenodd" d="M155.08 68.4382L154.888 67.0514L143.802 66.2039C141.556 66.0111 139.297 66.3407 137.2 67.167L132.003 69.0931C131.763 69.1802 131.561 69.35 131.434 69.5723C131.307 69.7947 131.263 70.0549 131.31 70.3065V70.5569C131.334 70.7012 131.387 70.839 131.467 70.9616C131.546 71.0843 131.65 71.1891 131.772 71.2696C131.894 71.3544 132.032 71.4135 132.178 71.4432C132.323 71.473 132.474 71.473 132.619 71.443L138.047 70.3836C139.576 70.0563 141.156 70.0563 142.685 70.3836L151.154 72.0593C151.668 72.1611 152.199 72.1372 152.701 71.9897C153.204 71.8421 153.663 71.5753 154.041 71.2118C154.425 70.8677 154.72 70.4357 154.901 69.9527C155.082 69.4698 155.143 68.9501 155.08 68.4382Z" fill="#3C322D"/>
<path fill-rule="evenodd" clip-rule="evenodd" d="M133.466 78.8392C139.355 83.3848 145.13 84.29 150.788 81.8053C151.022 81.7074 151.214 81.5302 151.33 81.3047C151.446 81.0793 151.479 80.8201 151.423 80.5726C151.377 80.3229 151.243 80.0979 151.045 79.9388C150.847 79.7798 150.599 79.6971 150.345 79.7059C144.958 79.6273 139.618 78.691 134.524 76.9323C134.274 76.836 133.997 76.8348 133.746 76.9288C133.495 77.0229 133.287 77.2058 133.161 77.4429C133.036 77.68 133.001 77.955 133.065 78.2158C133.128 78.4766 133.284 78.7052 133.504 78.8584L133.466 78.8392Z" fill="#3C322D"/>
</g>
<defs>
<radialGradient id="paint0_radial_112_2" cx="0" cy="0" r="1" gradientUnits="userSpaceOnUse" gradientTransform="translate(158.871 189.555) rotate(90) scale(189.555 168.552)">
<stop stop-color="#F9F9F9" stop-opacity="0.4"/>
<stop offset="0.864583" stop-color="#013254"/>
</radialGradient>
<clipPath id="clip0_112_2">
<rect width="360" height="733" fill="white"/>
</clipPath>
</defs>
</svg>
