<svg width="133" height="147" viewBox="0 0 133 147" fill="none" xmlns="http://www.w3.org/2000/svg">
<g clip-path="url(#clip0_106_20)">
<path d="M60.5142 1.86617C64.1304 -0.211114 68.8405 -0.220497 72.4536 1.86617C90.6306 12.1739 108.813 22.4655 126.987 32.7794C130.406 34.7118 132.692 38.5296 132.657 42.4825V104.498C132.683 108.614 130.17 112.523 126.564 114.412C108.447 124.663 90.3387 134.926 72.2245 145.177C68.5335 147.295 63.7289 147.132 60.1532 144.84C54.7217 141.68 49.2808 138.536 43.8487 135.379C42.7387 134.715 41.4874 134.186 40.7036 133.106C41.3965 132.169 42.6354 132.052 43.642 131.643C45.9092 130.92 47.9916 129.758 50.0744 128.631C50.6011 128.269 51.2442 128.408 51.7491 128.732C56.3937 131.404 60.9973 134.155 65.6575 136.802C66.6517 137.378 67.6583 136.613 68.5081 136.138C86.2867 126.054 104.087 116.007 121.863 105.92C122.521 105.602 122.885 104.901 122.832 104.177C122.844 83.7191 122.835 63.258 122.838 42.8005C122.913 41.9789 122.44 41.2236 121.7 40.8874C103.645 30.6834 85.6 20.4638 67.5487 10.2572C67.2359 10.0414 66.8655 9.9256 66.4859 9.92505C66.1064 9.92449 65.7356 10.0392 65.4222 10.254C47.3709 20.4638 29.3289 30.6928 11.2776 40.8962C10.54 41.233 10.045 41.9758 10.1328 42.8005C10.1359 63.258 10.1328 83.7191 10.1328 104.18C10.1015 104.533 10.1788 104.887 10.3543 105.195C10.5299 105.503 10.7951 105.75 11.1145 105.902C15.9316 108.643 20.7549 111.365 25.5751 114.097C28.2906 115.564 31.6247 116.435 34.6166 115.312C37.2568 114.361 39.1075 111.657 39.0571 108.844C39.082 88.506 39.0446 68.1647 39.0758 47.8297C39.0098 46.9269 39.8632 46.1809 40.7379 46.2659C43.0524 46.2503 45.3701 46.2346 47.6846 46.2722C48.6507 46.2503 49.3156 47.2225 49.1961 48.1321C49.1868 68.599 49.221 89.0664 49.1805 109.533C49.1868 114.988 46.9538 120.923 41.9263 123.592C35.7328 126.812 28.0776 126.129 21.9589 123.042C16.6619 120.388 11.6069 117.257 6.4039 114.414C2.78823 112.536 0.288274 108.612 0.313725 104.498V42.4825C0.275808 38.4478 2.65318 34.5606 6.17795 32.6564C24.2921 22.3972 42.4032 12.1301 60.5142 1.86617Z" fill="#8F8F8F"/>
<path d="M76.317 44.8246C84.2173 44.3142 92.675 44.5222 99.7843 48.4282C105.289 51.4213 108.34 57.7032 108.437 63.8402C108.284 64.668 107.421 65.1247 106.634 65.0678C104.342 65.0647 102.049 65.0991 99.7568 65.0522C98.7844 65.0897 98.2193 64.19 98.0972 63.3273C97.4386 60.3909 95.8429 57.4827 93.089 56.0664C88.8615 53.9422 83.9597 54.0491 79.3499 54.0934C75.9846 54.2727 72.3658 54.5652 69.5147 56.5512C67.3259 58.0556 66.661 61.0926 67.4422 63.5384C68.1788 65.2946 70.1988 65.8612 71.8516 66.3835C81.3725 68.8825 91.4617 68.6339 100.801 71.9226C104.667 73.2633 108.45 75.8697 109.773 79.9326C111.504 85.3778 110.746 91.8865 106.885 96.2579C103.755 99.8552 99.1953 101.813 94.6478 102.877C88.5981 104.23 82.3199 104.265 76.1762 103.664C70.3993 103.003 64.3875 101.48 59.9278 97.5293C56.1142 94.2062 54.2516 89.0283 54.4365 84.0308C54.4807 83.1869 55.318 82.5984 56.1236 82.6677C58.4319 82.6489 60.7402 82.6427 63.0485 82.6708C63.9704 82.6046 64.654 83.4043 64.7013 84.2764C65.1272 87.074 66.1748 90.0104 68.6057 91.6691C73.2971 94.7066 79.1837 94.4986 84.5555 94.5836C89.0059 94.3855 94.0016 94.3255 97.6334 91.3735C99.5495 89.6898 100.117 86.8728 99.5994 84.4494C99.0384 82.4034 96.9057 81.45 95.0742 80.8265C85.6753 77.8428 75.4735 78.9254 66.1655 75.5512C62.3867 74.211 58.7326 71.6771 57.2809 67.7811C55.2551 62.267 56.1833 55.4466 60.4483 51.2227C64.6067 47.0212 70.6096 45.4037 76.317 44.8246Z" fill="#8F8F8F"/>
</g>
<defs>
<clipPath id="clip0_106_20">
<rect width="133" height="147" fill="white"/>
</clipPath>
</defs>
</svg>
